<svg xmlns="http://www.w3.org/2000/svg" width="1600" height="900"><path d="M837,433L745,488L809,500Z" fill="#71a7ce" stroke="#71a7ce" stroke-width="1.51"/><path d="M837,433L721,346L745,488Z" fill="#7cacd1" stroke="#7cacd1" stroke-width="1.51"/><path d="M837,433L826,313L721,346Z" fill="#82aed2" stroke="#82aed2" stroke-width="1.51"/><path d="M837,433L935,390L826,313Z" fill="#79a9d0" stroke="#79a9d0" stroke-width="1.51"/><path d="M932,530L935,390L837,433Z" fill="#69a4cc" stroke="#69a4cc" stroke-width="1.51"/><path d="M809,500L932,530L837,433Z" fill="#68a3cb" stroke="#68a3cb" stroke-width="1.51"/><path d="M850,623L932,530L809,500Z" fill="#5d9ec9" stroke="#5d9ec9" stroke-width="1.51"/><path d="M745,488L707,600L809,500Z" fill="#6da5cd" stroke="#6da5cd" stroke-width="1.51"/><path d="M579,482L707,600L745,488Z" fill="#76a8ce" stroke="#76a8ce" stroke-width="1.51"/><path d="M826,313L743,285L721,346Z" fill="#8db2d5" stroke="#8db2d5" stroke-width="1.51"/><path d="M707,600L850,623L809,500Z" fill="#61a0ca" stroke="#61a0ca" stroke-width="1.51"/><path d="M592,274L602,404L721,346Z" fill="#95b6d7" stroke="#95b6d7" stroke-width="1.51"/><path d="M721,346L602,404L745,488Z" fill="#86afd3" stroke="#86afd3" stroke-width="1.51"/><path d="M602,404L579,482L745,488Z" fill="#83afd2" stroke="#83afd2" stroke-width="1.51"/><path d="M707,600L705,696L850,623Z" fill="#5d9cc8" stroke="#5d9cc8" stroke-width="1.51"/><path d="M563,518L676,645L707,600Z" fill="#6fa4cd" stroke="#6fa4cd" stroke-width="1.51"/><path d="M935,390L971,326L826,313Z" fill="#7aaacf" stroke="#7aaacf" stroke-width="1.51"/><path d="M826,313L814,164L743,285Z" fill="#92b4d6" stroke="#92b4d6" stroke-width="1.51"/><path d="M1056,359L971,326L935,390Z" fill="#70a5cd" stroke="#70a5cd" stroke-width="1.51"/><path d="M579,482L563,518L707,600Z" fill="#7baad0" stroke="#7baad0" stroke-width="1.51"/><path d="M531,371L563,518L579,482Z" fill="#8cb2d4" stroke="#8cb2d4" stroke-width="1.51"/><path d="M932,530L1039,469L935,390Z" fill="#609fc9" stroke="#609fc9" stroke-width="1.51"/><path d="M1032,566L1039,469L932,530Z" fill="#5299c6" stroke="#5299c6" stroke-width="1.51"/><path d="M676,645L705,696L707,600Z" fill="#639dc9" stroke="#639dc9" stroke-width="1.51"/><path d="M584,780L705,696L676,645Z" fill="#6499c7" stroke="#6499c7" stroke-width="1.51"/><path d="M743,285L592,274L721,346Z" fill="#96b6d7" stroke="#96b6d7" stroke-width="1.51"/><path d="M602,404L531,371L579,482Z" fill="#90b4d5" stroke="#90b4d5" stroke-width="1.51"/><path d="M592,274L531,371L602,404Z" fill="#9ab8d8" stroke="#9ab8d8" stroke-width="1.51"/><path d="M996,657L1032,566L932,530Z" fill="#4796c3" stroke="#4796c3" stroke-width="1.51"/><path d="M996,657L932,530L850,623Z" fill="#4c97c4" stroke="#4c97c4" stroke-width="1.51"/><path d="M1039,469L1056,359L935,390Z" fill="#65a1ca" stroke="#65a1ca" stroke-width="1.51"/><path d="M1082,332L1056,359L1146,404Z" fill="#669ec9" stroke="#669ec9" stroke-width="1.51"/><path d="M922,174L814,164L826,313Z" fill="#91b4d6" stroke="#91b4d6" stroke-width="1.51"/><path d="M743,285L643,180L592,274Z" fill="#a0bada" stroke="#a0bada" stroke-width="1.51"/><path d="M922,174L826,313L971,326Z" fill="#85aed3" stroke="#85aed3" stroke-width="1.51"/><path d="M949,704L996,657L850,623Z" fill="#4592c2" stroke="#4592c2" stroke-width="1.51"/><path d="M890,766L949,704L850,623Z" fill="#4690c1" stroke="#4690c1" stroke-width="1.51"/><path d="M737,145L643,180L743,285Z" fill="#a1bbda" stroke="#a1bbda" stroke-width="1.51"/><path d="M592,274L510,267L531,371Z" fill="#a4bbda" stroke="#a4bbda" stroke-width="1.51"/><path d="M1049,126L922,174L971,326Z" fill="#87aed2" stroke="#87aed2" stroke-width="1.51"/><path d="M777,102L737,145L814,164Z" fill="#a3bcda" stroke="#a3bcda" stroke-width="1.51"/><path d="M814,164L737,145L743,285Z" fill="#9db9d9" stroke="#9db9d9" stroke-width="1.51"/><path d="M1056,359L1082,332L971,326Z" fill="#6ea4cc" stroke="#6ea4cc" stroke-width="1.51"/><path d="M1146,404L1056,359L1039,469Z" fill="#5e9dc8" stroke="#5e9dc8" stroke-width="1.51"/><path d="M563,518L476,564L676,645Z" fill="#7aa8cf" stroke="#7aa8cf" stroke-width="1.51"/><path d="M531,371L476,564L563,518Z" fill="#8bb1d4" stroke="#8bb1d4" stroke-width="1.51"/><path d="M546,161L510,267L592,274Z" fill="#acc0dd" stroke="#acc0dd" stroke-width="1.51"/><path d="M531,371L391,356L476,564Z" fill="#98b7d7" stroke="#98b7d7" stroke-width="1.51"/><path d="M705,696L890,766L850,623Z" fill="#5194c4" stroke="#5194c4" stroke-width="1.51"/><path d="M1035,795L1095,684L996,657Z" fill="#2f87bc" stroke="#2f87bc" stroke-width="1.51"/><path d="M737,145L637,35L643,180Z" fill="#afc1de" stroke="#afc1de" stroke-width="1.51"/><path d="M811,86L777,102L814,164Z" fill="#a4bddb" stroke="#a4bddb" stroke-width="1.51"/><path d="M1151,510L1146,404L1039,469Z" fill="#5497c5" stroke="#5497c5" stroke-width="1.51"/><path d="M1151,510L1039,469L1032,566Z" fill="#4b96c4" stroke="#4b96c4" stroke-width="1.51"/><path d="M922,174L811,86L814,164Z" fill="#9cb9d8" stroke="#9cb9d8" stroke-width="1.51"/><path d="M1137,642L1151,510L1032,566Z" fill="#3e90c1" stroke="#3e90c1" stroke-width="1.51"/><path d="M1095,684L1032,566L996,657Z" fill="#378fbf" stroke="#378fbf" stroke-width="1.51"/><path d="M1035,795L996,657L949,704Z" fill="#3789bd" stroke="#3789bd" stroke-width="1.51"/><path d="M772,834L861,818L890,766Z" fill="#4688bc" stroke="#4688bc" stroke-width="1.51"/><path d="M772,834L890,766L705,696Z" fill="#4f8ec1" stroke="#4f8ec1" stroke-width="1.51"/><path d="M643,180L546,161L592,274Z" fill="#acbfdd" stroke="#acbfdd" stroke-width="1.51"/><path d="M637,35L546,161L643,180Z" fill="#b4c4df" stroke="#b4c4df" stroke-width="1.51"/><path d="M637,35L737,145L777,102Z" fill="#adc2dd" stroke="#adc2dd" stroke-width="1.51"/><path d="M674,844L772,834L705,696Z" fill="#568fc1" stroke="#568fc1" stroke-width="1.51"/><path d="M473,745L584,780L676,645Z" fill="#6b9bc8" stroke="#6b9bc8" stroke-width="1.51"/><path d="M925,830L949,704L890,766Z" fill="#3e88bd" stroke="#3e88bd" stroke-width="1.51"/><path d="M1095,684L1137,642L1032,566Z" fill="#338cbf" stroke="#338cbf" stroke-width="1.51"/><path d="M510,267L391,356L531,371Z" fill="#a5bddb" stroke="#a5bddb" stroke-width="1.51"/><path d="M546,161L457,220L510,267Z" fill="#b2c2de" stroke="#b2c2de" stroke-width="1.51"/><path d="M861,818L925,830L890,766Z" fill="#3f87bb" stroke="#3f87bb" stroke-width="1.51"/><path d="M848,1006L925,830L861,818Z" fill="#4081b2" stroke="#4081b2" stroke-width="1.51"/><path d="M395,244L391,356L510,267Z" fill="#afc1de" stroke="#afc1de" stroke-width="1.51"/><path d="M584,780L674,844L705,696Z" fill="#5f93c4" stroke="#5f93c4" stroke-width="1.51"/><path d="M772,834L767,936L861,818Z" fill="#4a87b7" stroke="#4a87b7" stroke-width="1.51"/><path d="M1082,332L1049,126L971,326Z" fill="#7aa8cf" stroke="#7aa8cf" stroke-width="1.51"/><path d="M922,174L938,58L811,86Z" fill="#9cb9d9" stroke="#9cb9d9" stroke-width="1.51"/><path d="M1156,144L1049,126L1082,332Z" fill="#7fa8cf" stroke="#7fa8cf" stroke-width="1.51"/><path d="M1049,126L938,58L922,174Z" fill="#94b4d6" stroke="#94b4d6" stroke-width="1.51"/><path d="M1095,684L1178,674L1137,642Z" fill="#2c86bb" stroke="#2c86bb" stroke-width="1.51"/><path d="M925,830L1035,795L949,704Z" fill="#3585bb" stroke="#3585bb" stroke-width="1.51"/><path d="M476,564L473,745L676,645Z" fill="#74a3cc" stroke="#74a3cc" stroke-width="1.51"/><path d="M584,780L535,830L674,844Z" fill="#6491c1" stroke="#6491c1" stroke-width="1.51"/><path d="M371,660L473,745L476,564Z" fill="#7da7ce" stroke="#7da7ce" stroke-width="1.51"/><path d="M546,161L523,58L457,220Z" fill="#bbc6e1" stroke="#bbc6e1" stroke-width="1.51"/><path d="M826,-15L637,35L777,102Z" fill="#afc4df" stroke="#afc4df" stroke-width="1.51"/><path d="M826,-15L777,102L811,86Z" fill="#a8c0dd" stroke="#a8c0dd" stroke-width="1.51"/><path d="M457,220L395,244L510,267Z" fill="#b3c3df" stroke="#b3c3df" stroke-width="1.51"/><path d="M289,202L395,244L367,62Z" fill="#c5cbe3" stroke="#c5cbe3" stroke-width="1.51"/><path d="M391,356L354,547L476,564Z" fill="#95b5d7" stroke="#95b5d7" stroke-width="1.51"/><path d="M274,454L354,547L391,356Z" fill="#a0bbda" stroke="#a0bbda" stroke-width="1.51"/><path d="M1146,404L1205,311L1082,332Z" fill="#669cc8" stroke="#669cc8" stroke-width="1.51"/><path d="M1302,418L1205,311L1146,404Z" fill="#5e96c5" stroke="#5e96c5" stroke-width="1.51"/><path d="M1302,418L1146,404L1151,510Z" fill="#5393c3" stroke="#5393c3" stroke-width="1.51"/><path d="M1049,126L1076,108L938,58Z" fill="#92b3d5" stroke="#92b3d5" stroke-width="1.51"/><path d="M1156,144L1076,108L1049,126Z" fill="#8aadd1" stroke="#8aadd1" stroke-width="1.51"/><path d="M1137,642L1178,674L1151,510Z" fill="#328abd" stroke="#328abd" stroke-width="1.51"/><path d="M1187,885L1178,674L1095,684Z" fill="#207db7" stroke="#207db7" stroke-width="1.51"/><path d="M473,745L535,830L584,780Z" fill="#6c96c6" stroke="#6c96c6" stroke-width="1.51"/><path d="M395,244L344,323L391,356Z" fill="#b1c2de" stroke="#b1c2de" stroke-width="1.51"/><path d="M473,745L393,867L535,830Z" fill="#7196c4" stroke="#7196c4" stroke-width="1.51"/><path d="M354,547L371,660L476,564Z" fill="#88aed2" stroke="#88aed2" stroke-width="1.51"/><path d="M938,58L826,-15L811,86Z" fill="#a5bedc" stroke="#a5bedc" stroke-width="1.51"/><path d="M894,-116L826,-15L938,58Z" fill="#a8c1dd" stroke="#a8c1dd" stroke-width="1.51"/><path d="M637,35L523,58L546,161Z" fill="#bcc8e1" stroke="#bcc8e1" stroke-width="1.51"/><path d="M588,-89L523,58L637,35Z" fill="#c1cde4" stroke="#c1cde4" stroke-width="1.51"/><path d="M1076,108L981,-90L938,58Z" fill="#9ab8d8" stroke="#9ab8d8" stroke-width="1.51"/><path d="M1205,311L1156,144L1082,332Z" fill="#74a1cb" stroke="#74a1cb" stroke-width="1.51"/><path d="M535,830L675,923L674,844Z" fill="#5f8dbb" stroke="#5f8dbb" stroke-width="1.51"/><path d="M674,844L675,923L772,834Z" fill="#5589b9" stroke="#5589b9" stroke-width="1.51"/><path d="M925,830L1000,912L1035,795Z" fill="#307fb3" stroke="#307fb3" stroke-width="1.51"/><path d="M675,923L767,936L772,834Z" fill="#5186b5" stroke="#5186b5" stroke-width="1.51"/><path d="M848,1006L1000,912L925,830Z" fill="#387dae" stroke="#387dae" stroke-width="1.51"/><path d="M1035,795L1187,885L1095,684Z" fill="#207cb7" stroke="#207cb7" stroke-width="1.51"/><path d="M354,547L287,576L371,660Z" fill="#8cb0d3" stroke="#8cb0d3" stroke-width="1.51"/><path d="M259,379L274,454L391,356Z" fill="#abbfdc" stroke="#abbfdc" stroke-width="1.51"/><path d="M274,454L287,576L354,547Z" fill="#99b7d7" stroke="#99b7d7" stroke-width="1.51"/><path d="M371,660L359,768L473,745Z" fill="#7da2cc" stroke="#7da2cc" stroke-width="1.51"/><path d="M1305,531L1302,418L1151,510Z" fill="#488dc0" stroke="#488dc0" stroke-width="1.51"/><path d="M1205,311L1324,238L1156,144Z" fill="#759dca" stroke="#759dca" stroke-width="1.51"/><path d="M1178,674L1305,531L1151,510Z" fill="#3889bd" stroke="#3889bd" stroke-width="1.51"/><path d="M1340,619L1305,531L1178,674Z" fill="#2a82ba" stroke="#2a82ba" stroke-width="1.51"/><path d="M287,576L329,716L371,660Z" fill="#88abd1" stroke="#88abd1" stroke-width="1.51"/><path d="M535,830L541,980L675,923Z" fill="#628cb7" stroke="#628cb7" stroke-width="1.51"/><path d="M344,323L259,379L391,356Z" fill="#afc1dd" stroke="#afc1dd" stroke-width="1.51"/><path d="M274,454L202,467L287,576Z" fill="#a0bbda" stroke="#a0bbda" stroke-width="1.51"/><path d="M289,202L259,379L344,323Z" fill="#b9c6e0" stroke="#b9c6e0" stroke-width="1.51"/><path d="M289,202L344,323L395,244Z" fill="#bbc6e1" stroke="#bbc6e1" stroke-width="1.51"/><path d="M329,716L359,768L371,660Z" fill="#82a4ce" stroke="#82a4ce" stroke-width="1.51"/><path d="M826,-15L688,-75L637,35Z" fill="#b7c9e1" stroke="#b7c9e1" stroke-width="1.51"/><path d="M1000,912L1035,941L1035,795Z" fill="#287baf" stroke="#287baf" stroke-width="1.51"/><path d="M848,1006L1035,941L1000,912Z" fill="#3279a9" stroke="#3279a9" stroke-width="1.51"/><path d="M367,62L395,244L457,220Z" fill="#c0c9e2" stroke="#c0c9e2" stroke-width="1.51"/><path d="M367,62L457,220L523,58Z" fill="#c4cbe3" stroke="#c4cbe3" stroke-width="1.51"/><path d="M767,936L848,1006L861,818Z" fill="#4581b0" stroke="#4581b0" stroke-width="1.51"/><path d="M696,1066L848,1006L767,936Z" fill="#487ca6" stroke="#487ca6" stroke-width="1.51"/><path d="M433,-90L367,62L523,58Z" fill="#cdd2e7" stroke="#cdd2e7" stroke-width="1.51"/><path d="M343,888L393,867L359,768Z" fill="#7998c3" stroke="#7998c3" stroke-width="1.51"/><path d="M359,768L393,867L473,745Z" fill="#789ac8" stroke="#789ac8" stroke-width="1.51"/><path d="M675,923L696,1066L767,936Z" fill="#5181ac" stroke="#5181ac" stroke-width="1.51"/><path d="M688,-75L588,-89L637,35Z" fill="#c0cee4" stroke="#c0cee4" stroke-width="1.51"/><path d="M826,-15L705,-178L688,-75Z" fill="#bacce3" stroke="#bacce3" stroke-width="1.51"/><path d="M567,-174L561,-102L588,-89Z" fill="#cbd4e8" stroke="#cbd4e8" stroke-width="1.51"/><path d="M1119,-88L981,-90L1076,108Z" fill="#99b8d8" stroke="#99b8d8" stroke-width="1.51"/><path d="M981,-90L894,-116L938,58Z" fill="#a6c0dd" stroke="#a6c0dd" stroke-width="1.51"/><path d="M1302,418L1324,238L1205,311Z" fill="#6595c5" stroke="#6595c5" stroke-width="1.51"/><path d="M1156,144L1207,47L1076,108Z" fill="#8aabd1" stroke="#8aabd1" stroke-width="1.51"/><path d="M1454,305L1324,238L1302,418Z" fill="#6290c0" stroke="#6290c0" stroke-width="1.51"/><path d="M1305,531L1426,420L1302,418Z" fill="#4a89bc" stroke="#4a89bc" stroke-width="1.51"/><path d="M1314,765L1340,619L1178,674Z" fill="#1e7bb6" stroke="#1e7bb6" stroke-width="1.51"/><path d="M393,867L541,980L535,830Z" fill="#6c90bc" stroke="#6c90bc" stroke-width="1.51"/><path d="M160,632L226,762L329,716Z" fill="#8baad1" stroke="#8baad1" stroke-width="1.51"/><path d="M226,762L343,888L359,768Z" fill="#809dc9" stroke="#809dc9" stroke-width="1.51"/><path d="M259,379L202,467L274,454Z" fill="#a9c0dc" stroke="#a9c0dc" stroke-width="1.51"/><path d="M187,345L202,467L259,379Z" fill="#b0c3df" stroke="#b0c3df" stroke-width="1.51"/><path d="M1328,137L1207,47L1156,144Z" fill="#86a4ce" stroke="#86a4ce" stroke-width="1.51"/><path d="M1035,941L1187,885L1035,795Z" fill="#2078ae" stroke="#2078ae" stroke-width="1.51"/><path d="M1187,885L1275,788L1178,674Z" fill="#1576b3" stroke="#1576b3" stroke-width="1.51"/><path d="M588,-89L561,-102L523,58Z" fill="#c7d1e6" stroke="#c7d1e6" stroke-width="1.51"/><path d="M620,-201L588,-89L688,-75Z" fill="#c6d1e7" stroke="#c6d1e7" stroke-width="1.51"/><path d="M289,202L187,345L259,379Z" fill="#bac7e1" stroke="#bac7e1" stroke-width="1.51"/><path d="M131,310L187,345L289,202Z" fill="#c0cbe3" stroke="#c0cbe3" stroke-width="1.51"/><path d="M1207,47L1163,-29L1076,108Z" fill="#8faed3" stroke="#8faed3" stroke-width="1.51"/><path d="M1313,-2L1163,-29L1207,47Z" fill="#8fabd2" stroke="#8fabd2" stroke-width="1.51"/><path d="M1345,923L1314,765L1275,788Z" fill="#056dab" stroke="#056dab" stroke-width="1.51"/><path d="M1275,788L1314,765L1178,674Z" fill="#1777b4" stroke="#1777b4" stroke-width="1.51"/><path d="M541,980L696,1066L675,923Z" fill="#5883ab" stroke="#5883ab" stroke-width="1.51"/><path d="M1008,1110L1063,1036L1035,941Z" fill="#226d9a" stroke="#226d9a" stroke-width="1.51"/><path d="M1035,941L1160,985L1187,885Z" fill="#1b71a5" stroke="#1b71a5" stroke-width="1.51"/><path d="M393,867L366,914L541,980Z" fill="#7090ba" stroke="#7090ba" stroke-width="1.51"/><path d="M541,980L586,1087L696,1066Z" fill="#587da3" stroke="#587da3" stroke-width="1.51"/><path d="M226,762L359,768L329,716Z" fill="#84a2cd" stroke="#84a2cd" stroke-width="1.51"/><path d="M894,-116L705,-178L826,-15Z" fill="#b5cae2" stroke="#b5cae2" stroke-width="1.51"/><path d="M981,-90L965,-145L894,-116Z" fill="#a9c3de" stroke="#a9c3de" stroke-width="1.51"/><path d="M1060,-203L965,-145L981,-90Z" fill="#a5c2dd" stroke="#a5c2dd" stroke-width="1.51"/><path d="M343,888L366,914L393,867Z" fill="#7795be" stroke="#7795be" stroke-width="1.51"/><path d="M1324,238L1328,137L1156,144Z" fill="#7b9eca" stroke="#7b9eca" stroke-width="1.51"/><path d="M1385,221L1328,137L1324,238Z" fill="#7598c5" stroke="#7598c5" stroke-width="1.51"/><path d="M1340,619L1411,552L1305,531Z" fill="#3281b7" stroke="#3281b7" stroke-width="1.51"/><path d="M1443,686L1391,616L1340,619Z" fill="#217ab1" stroke="#217ab1" stroke-width="1.51"/><path d="M264,93L228,157L289,202Z" fill="#ced0e6" stroke="#ced0e6" stroke-width="1.51"/><path d="M264,93L289,202L367,62Z" fill="#cfd0e6" stroke="#cfd0e6" stroke-width="1.51"/><path d="M251,-95L264,93L367,62Z" fill="#d8d7e9" stroke="#d8d7e9" stroke-width="1.51"/><path d="M1163,-29L1119,-88L1076,108Z" fill="#94b2d5" stroke="#94b2d5" stroke-width="1.51"/><path d="M1148,-194L1119,-88L1312,-159Z" fill="#9bb5d7" stroke="#9bb5d7" stroke-width="1.51"/><path d="M965,-145L705,-178L894,-116Z" fill="#b3c9e2" stroke="#b3c9e2" stroke-width="1.51"/><path d="M1391,616L1411,552L1340,619Z" fill="#2b7eb3" stroke="#2b7eb3" stroke-width="1.51"/><path d="M343,888L333,910L366,914Z" fill="#7894bd" stroke="#7894bd" stroke-width="1.51"/><path d="M160,632L329,716L287,576Z" fill="#8eafd3" stroke="#8eafd3" stroke-width="1.51"/><path d="M160,632L287,576L202,467Z" fill="#9ab8d8" stroke="#9ab8d8" stroke-width="1.51"/><path d="M1411,552L1426,420L1305,531Z" fill="#4184b7" stroke="#4184b7" stroke-width="1.51"/><path d="M1454,305L1385,221L1324,238Z" fill="#6c93c0" stroke="#6c93c0" stroke-width="1.51"/><path d="M202,932L333,910L343,888Z" fill="#7d96be" stroke="#7d96be" stroke-width="1.51"/><path d="M404,1102L528,1053L541,980Z" fill="#6481a5" stroke="#6481a5" stroke-width="1.51"/><path d="M561,-102L433,-90L523,58Z" fill="#ccd3e7" stroke="#ccd3e7" stroke-width="1.51"/><path d="M431,-151L433,-90L561,-102Z" fill="#d3d8ea" stroke="#d3d8ea" stroke-width="1.51"/><path d="M1008,1110L1035,941L848,1006Z" fill="#2e729e" stroke="#2e729e" stroke-width="1.51"/><path d="M1187,885L1345,923L1275,788Z" fill="#0c6da8" stroke="#0c6da8" stroke-width="1.51"/><path d="M696,1066L868,1094L848,1006Z" fill="#42759c" stroke="#42759c" stroke-width="1.51"/><path d="M79,534L160,632L202,467Z" fill="#a0bcda" stroke="#a0bcda" stroke-width="1.51"/><path d="M1063,1036L1160,985L1035,941Z" fill="#1e6fa0" stroke="#1e6fa0" stroke-width="1.51"/><path d="M404,1102L541,980L366,914Z" fill="#6b89ae" stroke="#6b89ae" stroke-width="1.51"/><path d="M696,1066L586,1087L868,1094Z" fill="#4a759a" stroke="#4a759a" stroke-width="1.51"/><path d="M620,-201L567,-174L588,-89Z" fill="#cbd5e8" stroke="#cbd5e8" stroke-width="1.51"/><path d="M528,1053L586,1087L541,980Z" fill="#5e80a5" stroke="#5e80a5" stroke-width="1.51"/><path d="M187,345L89,430L202,467Z" fill="#b1c5e0" stroke="#b1c5e0" stroke-width="1.51"/><path d="M228,157L131,310L289,202Z" fill="#c7cee5" stroke="#c7cee5" stroke-width="1.51"/><path d="M83,276L131,310L228,157Z" fill="#c8cfe5" stroke="#c8cfe5" stroke-width="1.51"/><path d="M1060,-203L620,-201L705,-178Z" fill="#bbcee4" stroke="#bbcee4" stroke-width="1.51"/><path d="M705,-178L620,-201L688,-75Z" fill="#c4d1e6" stroke="#c4d1e6" stroke-width="1.51"/><path d="M1351,17L1313,-2L1328,137Z" fill="#87a2cb" stroke="#87a2cb" stroke-width="1.51"/><path d="M1426,420L1454,305L1302,418Z" fill="#578bbb" stroke="#578bbb" stroke-width="1.51"/><path d="M1542,299L1454,305L1575,339Z" fill="#5f89b5" stroke="#5f89b5" stroke-width="1.51"/><path d="M1411,552L1473,490L1426,420Z" fill="#4283b4" stroke="#4283b4" stroke-width="1.51"/><path d="M1483,615L1473,490L1411,552Z" fill="#347eb0" stroke="#347eb0" stroke-width="1.51"/><path d="M1483,615L1411,552L1391,616Z" fill="#2a7cb0" stroke="#2a7cb0" stroke-width="1.51"/><path d="M1351,17L1328,137L1373,18Z" fill="#85a0c9" stroke="#85a0c9" stroke-width="1.51"/><path d="M1328,137L1313,-2L1207,47Z" fill="#88a4ce" stroke="#88a4ce" stroke-width="1.51"/><path d="M1063,1036L1148,1073L1160,985Z" fill="#1a6897" stroke="#1a6897" stroke-width="1.51"/><path d="M868,1094L1008,1110L848,1006Z" fill="#356e97" stroke="#356e97" stroke-width="1.51"/><path d="M404,1102L1008,1110L868,1094Z" fill="#447196" stroke="#447196" stroke-width="1.51"/><path d="M131,310L89,430L187,345Z" fill="#b9c9e2" stroke="#b9c9e2" stroke-width="1.51"/><path d="M338,-179L431,-151L567,-174Z" fill="#d8dbeb" stroke="#d8dbeb" stroke-width="1.51"/><path d="M567,-174L431,-151L561,-102Z" fill="#d1d7e9" stroke="#d1d7e9" stroke-width="1.51"/><path d="M251,-95L148,53L264,93Z" fill="#dcdbec" stroke="#dcdbec" stroke-width="1.51"/><path d="M1314,765L1443,686L1340,619Z" fill="#1a76b0" stroke="#1a76b0" stroke-width="1.51"/><path d="M1423,825L1443,686L1314,765Z" fill="#0d6eab" stroke="#0d6eab" stroke-width="1.51"/><path d="M965,-145L1060,-203L705,-178Z" fill="#b0c8e0" stroke="#b0c8e0" stroke-width="1.51"/><path d="M1119,-88L1060,-203L981,-90Z" fill="#a0bedb" stroke="#a0bedb" stroke-width="1.51"/><path d="M1148,-194L1060,-203L1119,-88Z" fill="#9fbcda" stroke="#9fbcda" stroke-width="1.51"/><path d="M131,832L202,932L226,762Z" fill="#86a0c7" stroke="#86a0c7" stroke-width="1.51"/><path d="M89,430L79,534L202,467Z" fill="#aac2de" stroke="#aac2de" stroke-width="1.51"/><path d="M1312,-159L1119,-88L1163,-29Z" fill="#97b2d6" stroke="#97b2d6" stroke-width="1.51"/><path d="M1373,18L1328,137L1497,3Z" fill="#859ec6" stroke="#859ec6" stroke-width="1.51"/><path d="M1443,686L1483,615L1391,616Z" fill="#2078ad" stroke="#2078ad" stroke-width="1.51"/><path d="M1160,985L1345,923L1187,885Z" fill="#116ba3" stroke="#116ba3" stroke-width="1.51"/><path d="M1008,1110L1148,1073L1063,1036Z" fill="#1c6692" stroke="#1c6692" stroke-width="1.51"/><path d="M-10,604L51,634L79,534Z" fill="#9fbdda" stroke="#9fbdda" stroke-width="1.51"/><path d="M131,310L83,276L89,430Z" fill="#bfcce3" stroke="#bfcce3" stroke-width="1.51"/><path d="M113,129L83,276L228,157Z" fill="#d0d3e7" stroke="#d0d3e7" stroke-width="1.51"/><path d="M113,129L228,157L148,53Z" fill="#d8d7e9" stroke="#d8d7e9" stroke-width="1.51"/><path d="M1351,17L1395,-29L1313,-2Z" fill="#8ba4cb" stroke="#8ba4cb" stroke-width="1.51"/><path d="M1497,3L1328,137L1385,221Z" fill="#7e9ac4" stroke="#7e9ac4" stroke-width="1.51"/><path d="M1386,990L1345,923L1310,1088Z" fill="#045e94" stroke="#045e94" stroke-width="1.51"/><path d="M1443,686L1526,752L1483,615Z" fill="#1a71a8" stroke="#1a71a8" stroke-width="1.51"/><path d="M1345,923L1423,825L1314,765Z" fill="#056aa6" stroke="#056aa6" stroke-width="1.51"/><path d="M1312,-159L1163,-29L1313,-2Z" fill="#93acd3" stroke="#93acd3" stroke-width="1.51"/><path d="M148,53L228,157L264,93Z" fill="#d6d5e8" stroke="#d6d5e8" stroke-width="1.51"/><path d="M251,-95L367,62L433,-90Z" fill="#d9d9eb" stroke="#d9d9eb" stroke-width="1.51"/><path d="M586,1087L404,1102L868,1094Z" fill="#54779a" stroke="#54779a" stroke-width="1.51"/><path d="M528,1053L404,1102L586,1087Z" fill="#607d9f" stroke="#607d9f" stroke-width="1.51"/><path d="M333,910L404,1102L366,914Z" fill="#738eb4" stroke="#738eb4" stroke-width="1.51"/><path d="M254,1114L404,1102L333,910Z" fill="#7188a9" stroke="#7188a9" stroke-width="1.51"/><path d="M202,932L343,888L226,762Z" fill="#819bc4" stroke="#819bc4" stroke-width="1.51"/><path d="M131,832L226,762L40,739Z" fill="#8ca7d0" stroke="#8ca7d0" stroke-width="1.51"/><path d="M79,534L51,634L160,632Z" fill="#9bbad9" stroke="#9bbad9" stroke-width="1.51"/><path d="M-10,604L79,534L-45,490Z" fill="#a7c1dd" stroke="#a7c1dd" stroke-width="1.51"/><path d="M40,739L226,762L160,632Z" fill="#90add2" stroke="#90add2" stroke-width="1.51"/><path d="M338,-179L251,-95L433,-90Z" fill="#dedded" stroke="#dedded" stroke-width="1.51"/><path d="M1454,305L1578,203L1385,221Z" fill="#6b90bb" stroke="#6b90bb" stroke-width="1.51"/><path d="M1575,339L1454,305L1426,420Z" fill="#5a89b6" stroke="#5a89b6" stroke-width="1.51"/><path d="M1575,339L1426,420L1473,490Z" fill="#4f85b3" stroke="#4f85b3" stroke-width="1.51"/><path d="M431,-151L338,-179L433,-90Z" fill="#dbdcec" stroke="#dbdcec" stroke-width="1.51"/><path d="M620,-201L338,-179L567,-174Z" fill="#d4d9eb" stroke="#d4d9eb" stroke-width="1.51"/><path d="M1373,18L1395,-29L1351,17Z" fill="#8aa3ca" stroke="#8aa3ca" stroke-width="1.51"/><path d="M1497,3L1395,-29L1373,18Z" fill="#88a1c6" stroke="#88a1c6" stroke-width="1.51"/><path d="M1618,344L1575,339L1673,490Z" fill="#4f7fa8" stroke="#4f7fa8" stroke-width="1.51"/><path d="M1542,299L1578,203L1454,305Z" fill="#668cb6" stroke="#668cb6" stroke-width="1.51"/><path d="M1597,608L1473,490L1483,615Z" fill="#2f79ab" stroke="#2f79ab" stroke-width="1.51"/><path d="M131,832L103,887L202,932Z" fill="#869ec4" stroke="#869ec4" stroke-width="1.51"/><path d="M51,634L40,739L160,632Z" fill="#96b4d6" stroke="#96b4d6" stroke-width="1.51"/><path d="M-69,685L40,739L51,634Z" fill="#99b5d7" stroke="#99b5d7" stroke-width="1.51"/><path d="M1423,825L1526,752L1443,686Z" fill="#0d6ca6" stroke="#0d6ca6" stroke-width="1.51"/><path d="M1504,896L1526,752L1423,825Z" fill="#04659f" stroke="#04659f" stroke-width="1.51"/><path d="M1395,-29L1312,-159L1313,-2Z" fill="#90a8cf" stroke="#90a8cf" stroke-width="1.51"/><path d="M1345,923L1504,896L1423,825Z" fill="#04649d" stroke="#04649d" stroke-width="1.51"/><path d="M1310,1088L1345,923L1160,985Z" fill="#096298" stroke="#096298" stroke-width="1.51"/><path d="M2,790L103,887L131,832Z" fill="#8ca4ca" stroke="#8ca4ca" stroke-width="1.51"/><path d="M202,932L193,1030L333,910Z" fill="#7d95ba" stroke="#7d95ba" stroke-width="1.51"/><path d="M-45,490L79,534L89,430Z" fill="#aec5df" stroke="#aec5df" stroke-width="1.51"/><path d="M-41,368L89,430L83,276Z" fill="#bfcde4" stroke="#bfcde4" stroke-width="1.51"/><path d="M148,-208L166,-75L251,-95Z" fill="#e8e4f0" stroke="#e8e4f0" stroke-width="1.51"/><path d="M251,-95L166,-75L148,53Z" fill="#e2dfee" stroke="#e2dfee" stroke-width="1.51"/><path d="M148,53L37,13L113,129Z" fill="#dfdcec" stroke="#dfdcec" stroke-width="1.51"/><path d="M103,887L125,931L202,932Z" fill="#859cc1" stroke="#859cc1" stroke-width="1.51"/><path d="M1148,1073L1310,1088L1160,985Z" fill="#126192" stroke="#126192" stroke-width="1.51"/><path d="M1008,1110L1310,1088L1148,1073Z" fill="#155f8c" stroke="#155f8c" stroke-width="1.51"/><path d="M1526,752L1597,608L1483,615Z" fill="#1d72a6" stroke="#1d72a6" stroke-width="1.51"/><path d="M125,931L193,1030L202,932Z" fill="#8197ba" stroke="#8197ba" stroke-width="1.51"/><path d="M-55,310L83,276L-84,198Z" fill="#ced5e8" stroke="#ced5e8" stroke-width="1.51"/><path d="M-55,310L-41,368L83,276Z" fill="#c7d1e6" stroke="#c7d1e6" stroke-width="1.51"/><path d="M1623,242L1578,203L1542,299Z" fill="#688ab2" stroke="#688ab2" stroke-width="1.51"/><path d="M1395,-29L1420,-164L1312,-159Z" fill="#92a9cd" stroke="#92a9cd" stroke-width="1.51"/><path d="M1623,242L1542,299L1575,339Z" fill="#6188b0" stroke="#6188b0" stroke-width="1.51"/><path d="M-41,368L-45,490L89,430Z" fill="#b7cae2" stroke="#b7cae2" stroke-width="1.51"/><path d="M1673,490L1575,339L1473,490Z" fill="#4880ac" stroke="#4880ac" stroke-width="1.51"/><path d="M1594,94L1497,3L1385,221Z" fill="#7d97be" stroke="#7d97be" stroke-width="1.51"/><path d="M1519,955L1504,896L1386,990Z" fill="#045e93" stroke="#045e93" stroke-width="1.51"/><path d="M1386,990L1504,896L1345,923Z" fill="#046199" stroke="#046199" stroke-width="1.51"/><path d="M1526,752L1630,721L1597,608Z" fill="#176ba0" stroke="#176ba0" stroke-width="1.51"/><path d="M404,1102L254,1114L1008,1110Z" fill="#5a7899" stroke="#5a7899" stroke-width="1.51"/><path d="M193,1030L254,1114L333,910Z" fill="#788daf" stroke="#788daf" stroke-width="1.51"/><path d="M-41,368L-117,482L-45,490Z" fill="#b7cbe3" stroke="#b7cbe3" stroke-width="1.51"/><path d="M-84,198L83,276L113,129Z" fill="#d4d7e9" stroke="#d4d7e9" stroke-width="1.51"/><path d="M193,1030L108,1070L254,1114Z" fill="#798aa7" stroke="#798aa7" stroke-width="1.51"/><path d="M125,931L108,1070L193,1030Z" fill="#7f93b3" stroke="#7f93b3" stroke-width="1.51"/><path d="M-43,927L108,1070L125,931Z" fill="#869abb" stroke="#869abb" stroke-width="1.51"/><path d="M40,739L2,790L131,832Z" fill="#90a9d1" stroke="#90a9d1" stroke-width="1.51"/><path d="M-69,685L2,790L40,739Z" fill="#96b0d5" stroke="#96b0d5" stroke-width="1.51"/><path d="M-69,685L51,634L-10,604Z" fill="#9cbad9" stroke="#9cbad9" stroke-width="1.51"/><path d="M1578,203L1594,94L1385,221Z" fill="#7491ba" stroke="#7491ba" stroke-width="1.51"/><path d="M1618,344L1623,242L1575,339Z" fill="#5e85ad" stroke="#5e85ad" stroke-width="1.51"/><path d="M52,-49L37,13L148,53Z" fill="#e5e1ef" stroke="#e5e1ef" stroke-width="1.51"/><path d="M1310,1088L1416,1050L1386,990Z" fill="#04598b" stroke="#04598b" stroke-width="1.51"/><path d="M1498,-89L1395,-29L1497,3Z" fill="#8aa1c5" stroke="#8aa1c5" stroke-width="1.51"/><path d="M1498,-89L1420,-164L1395,-29Z" fill="#8fa5c8" stroke="#8fa5c8" stroke-width="1.51"/><path d="M1312,-159L1420,-164L1148,-194Z" fill="#98afd5" stroke="#98afd5" stroke-width="1.51"/><path d="M1676,172L1594,94L1578,203Z" fill="#738cb0" stroke="#738cb0" stroke-width="1.51"/><path d="M-187,613L-69,685L-10,604Z" fill="#a0bdda" stroke="#a0bdda" stroke-width="1.51"/><path d="M-117,482L-10,604L-45,490Z" fill="#acc5df" stroke="#acc5df" stroke-width="1.51"/><path d="M1603,877L1630,721L1526,752Z" fill="#05639b" stroke="#05639b" stroke-width="1.51"/><path d="M1597,608L1673,490L1473,490Z" fill="#3779a8" stroke="#3779a8" stroke-width="1.51"/><path d="M1803,257L1676,172L1623,242Z" fill="#6682a5" stroke="#6682a5" stroke-width="1.51"/><path d="M1603,877L1526,752L1504,896Z" fill="#046299" stroke="#046299" stroke-width="1.51"/><path d="M166,-75L52,-49L148,53Z" fill="#e5e1ef" stroke="#e5e1ef" stroke-width="1.51"/><path d="M-69,50L-84,198L113,129Z" fill="#deddec" stroke="#deddec" stroke-width="1.51"/><path d="M93,-153L52,-49L166,-75Z" fill="#eae6f1" stroke="#eae6f1" stroke-width="1.51"/><path d="M1740,495L1673,490L1762,642Z" fill="#316d97" stroke="#316d97" stroke-width="1.51"/><path d="M1623,242L1676,172L1578,203Z" fill="#6b89ae" stroke="#6b89ae" stroke-width="1.51"/><path d="M1416,1050L1519,955L1386,990Z" fill="#035a8e" stroke="#035a8e" stroke-width="1.51"/><path d="M1609,-94L1498,-89L1497,3Z" fill="#8a9fc0" stroke="#8a9fc0" stroke-width="1.51"/><path d="M-194,437L-41,368L-55,310Z" fill="#c3d1e6" stroke="#c3d1e6" stroke-width="1.51"/><path d="M-194,437L-117,482L-41,368Z" fill="#bbcde5" stroke="#bbcde5" stroke-width="1.51"/><path d="M-69,50L113,129L37,13Z" fill="#e2e0ee" stroke="#e2e0ee" stroke-width="1.51"/><path d="M1498,-89L1489,-133L1420,-164Z" fill="#90a4c7" stroke="#90a4c7" stroke-width="1.51"/><path d="M1609,-94L1489,-133L1498,-89Z" fill="#8da1c2" stroke="#8da1c2" stroke-width="1.51"/><path d="M1060,-203L148,-208L620,-201Z" fill="#ccd6e9" stroke="#ccd6e9" stroke-width="1.51"/><path d="M620,-201L148,-208L338,-179Z" fill="#e0e0ee" stroke="#e0e0ee" stroke-width="1.51"/><path d="M338,-179L148,-208L251,-95Z" fill="#e7e3f0" stroke="#e7e3f0" stroke-width="1.51"/><path d="M-43,927L125,931L103,887Z" fill="#8a9fc2" stroke="#8a9fc2" stroke-width="1.51"/><path d="M-43,927L103,887L2,790Z" fill="#8ea4c9" stroke="#8ea4c9" stroke-width="1.51"/><path d="M148,-208L93,-153L166,-75Z" fill="#ece7f2" stroke="#ece7f2" stroke-width="1.51"/><path d="M1,-106L-69,50L37,13Z" fill="#eae6f1" stroke="#eae6f1" stroke-width="1.51"/><path d="M1762,642L1673,490L1597,608Z" fill="#296e9a" stroke="#296e9a" stroke-width="1.51"/><path d="M1519,955L1603,877L1504,896Z" fill="#045d92" stroke="#045d92" stroke-width="1.51"/><path d="M1594,94L1609,-94L1497,3Z" fill="#849abc" stroke="#849abc" stroke-width="1.51"/><path d="M1784,366L1623,242L1618,344Z" fill="#597fa4" stroke="#597fa4" stroke-width="1.51"/><path d="M1,-106L37,13L52,-49Z" fill="#ece7f2" stroke="#ece7f2" stroke-width="1.51"/><path d="M-84,198L-189,263L-55,310Z" fill="#d2d8ea" stroke="#d2d8ea" stroke-width="1.51"/><path d="M-167,879L2,790L-69,685Z" fill="#95add3" stroke="#95add3" stroke-width="1.51"/><path d="M-167,879L-43,927L2,790Z" fill="#92a7ca" stroke="#92a7ca" stroke-width="1.51"/><path d="M1673,490L1784,366L1618,344Z" fill="#4c79a0" stroke="#4c79a0" stroke-width="1.51"/><path d="M1727,691L1597,608L1630,721Z" fill="#196899" stroke="#196899" stroke-width="1.51"/><path d="M93,-153L1,-106L52,-49Z" fill="#eee9f3" stroke="#eee9f3" stroke-width="1.51"/><path d="M-65,-205L1,-106L93,-153Z" fill="#f3edf5" stroke="#f3edf5" stroke-width="1.51"/><path d="M1519,955L1674,972L1603,877Z" fill="#04588a" stroke="#04588a" stroke-width="1.51"/><path d="M1416,1050L1498,1099L1519,955Z" fill="#045585" stroke="#045585" stroke-width="1.51"/><path d="M1310,1088L1498,1099L1416,1050Z" fill="#035382" stroke="#035382" stroke-width="1.51"/><path d="M1008,1110L1498,1099L1310,1088Z" fill="#085787" stroke="#085787" stroke-width="1.51"/><path d="M1717,821L1727,691L1630,721Z" fill="#0d5f91" stroke="#0d5f91" stroke-width="1.51"/><path d="M1717,821L1630,721L1603,877Z" fill="#045d92" stroke="#045d92" stroke-width="1.51"/><path d="M-137,32L-150,169L-69,50Z" fill="#e6e3f0" stroke="#e6e3f0" stroke-width="1.51"/><path d="M-69,50L-150,169L-84,198Z" fill="#e0dfed" stroke="#e0dfed" stroke-width="1.51"/><path d="M-189,263L-194,437L-55,310Z" fill="#c9d4e8" stroke="#c9d4e8" stroke-width="1.51"/><path d="M-117,482L-187,613L-10,604Z" fill="#a9c3de" stroke="#a9c3de" stroke-width="1.51"/><path d="M-194,437L-187,613L-117,482Z" fill="#b3c9e2" stroke="#b3c9e2" stroke-width="1.51"/><path d="M1680,-115L1609,-94L1784,5Z" fill="#8393b0" stroke="#8393b0" stroke-width="1.51"/><path d="M1489,-133L1753,-163L1420,-164Z" fill="#8ea1c1" stroke="#8ea1c1" stroke-width="1.51"/><path d="M-150,169L-189,263L-84,198Z" fill="#d9dcec" stroke="#d9dcec" stroke-width="1.51"/><path d="M1727,691L1762,642L1597,608Z" fill="#1b6895" stroke="#1b6895" stroke-width="1.51"/><path d="M1717,821L1762,642L1727,691Z" fill="#115f8d" stroke="#115f8d" stroke-width="1.51"/><path d="M1740,495L1784,366L1673,490Z" fill="#417399" stroke="#417399" stroke-width="1.51"/><path d="M1784,5L1609,-94L1594,94Z" fill="#7f92b0" stroke="#7f92b0" stroke-width="1.51"/><path d="M1762,642L1784,366L1740,495Z" fill="#376d94" stroke="#376d94" stroke-width="1.51"/><path d="M1709,966L1717,821L1603,877Z" fill="#045687" stroke="#045687" stroke-width="1.51"/><path d="M-152,-47L-137,32L-69,50Z" fill="#ece7f2" stroke="#ece7f2" stroke-width="1.51"/><path d="M-150,169L-152,-47L-189,263Z" fill="#e4e1ef" stroke="#e4e1ef" stroke-width="1.51"/><path d="M-187,613L-195,706L-69,685Z" fill="#a0bbda" stroke="#a0bbda" stroke-width="1.51"/><path d="M-194,437L-195,706L-187,613Z" fill="#a9c4df" stroke="#a9c4df" stroke-width="1.51"/><path d="M1498,1099L1603,1075L1519,955Z" fill="#04517f" stroke="#04517f" stroke-width="1.51"/><path d="M1603,1075L1674,972L1519,955Z" fill="#035281" stroke="#035281" stroke-width="1.51"/><path d="M1784,366L1803,257L1623,242Z" fill="#5b7c9f" stroke="#5b7c9f" stroke-width="1.51"/><path d="M1762,642L1803,257L1784,366Z" fill="#457195" stroke="#457195" stroke-width="1.51"/><path d="M-43,927L-77,1064L108,1070Z" fill="#8697b4" stroke="#8697b4" stroke-width="1.51"/><path d="M-195,706L-167,879L-69,685Z" fill="#9ab2d6" stroke="#9ab2d6" stroke-width="1.51"/><path d="M1795,1116L1709,966L1674,972Z" fill="#034870" stroke="#034870" stroke-width="1.51"/><path d="M1674,972L1709,966L1603,877Z" fill="#035383" stroke="#035383" stroke-width="1.51"/><path d="M1717,821L1795,1116L1762,642Z" fill="#035280" stroke="#035280" stroke-width="1.51"/><path d="M-153,944L-77,1064L-43,927Z" fill="#8c9fbd" stroke="#8c9fbd" stroke-width="1.51"/><path d="M108,1070L-77,1064L254,1114Z" fill="#7c8da8" stroke="#7c8da8" stroke-width="1.51"/><path d="M1784,5L1594,94L1676,172Z" fill="#778bab" stroke="#778bab" stroke-width="1.51"/><path d="M1609,-94L1680,-115L1489,-133Z" fill="#8b9dbc" stroke="#8b9dbc" stroke-width="1.51"/><path d="M-167,879L-153,944L-43,927Z" fill="#91a5c6" stroke="#91a5c6" stroke-width="1.51"/><path d="M1,-106L-152,-47L-69,50Z" fill="#efe9f4" stroke="#efe9f4" stroke-width="1.51"/><path d="M-137,32L-152,-47L-150,169Z" fill="#eae6f1" stroke="#eae6f1" stroke-width="1.51"/><path d="M-65,-205L-152,-47L1,-106Z" fill="#f4edf5" stroke="#f4edf5" stroke-width="1.51"/><path d="M1803,257L1795,123L1676,172Z" fill="#68809f" stroke="#68809f" stroke-width="1.51"/><path d="M148,-208L-65,-205L93,-153Z" fill="#f2edf5" stroke="#f2edf5" stroke-width="1.51"/><path d="M1795,123L1784,5L1676,172Z" fill="#7285a3" stroke="#7285a3" stroke-width="1.51"/><path d="M-167,879L-130,1066L-153,944Z" fill="#90a2c1" stroke="#90a2c1" stroke-width="1.51"/><path d="M-153,944L-130,1066L-77,1064Z" fill="#8a9ab5" stroke="#8a9ab5" stroke-width="1.51"/><path d="M-77,1064L-130,1066L254,1114Z" fill="#8090a9" stroke="#8090a9" stroke-width="1.51"/><path d="M1784,5L1742,-105L1680,-115Z" fill="#8191ab" stroke="#8191ab" stroke-width="1.51"/><path d="M1680,-115L1753,-163L1489,-133Z" fill="#899ab7" stroke="#899ab7" stroke-width="1.51"/><path d="M-65,-205L-160,-189L-152,-47Z" fill="#f8f1f7" stroke="#f8f1f7" stroke-width="1.51"/><path d="M-152,-47L-160,-189L-189,263Z" fill="#eee9f3" stroke="#eee9f3" stroke-width="1.51"/><path d="M1784,5L1753,-163L1742,-105Z" fill="#818fa8" stroke="#818fa8" stroke-width="1.51"/><path d="M1742,-105L1753,-163L1680,-115Z" fill="#8494ad" stroke="#8494ad" stroke-width="1.51"/><path d="M1420,-164L1753,-163L1148,-194Z" fill="#94a8ca" stroke="#94a8ca" stroke-width="1.51"/><path d="M1148,-194L1753,-163L1060,-203Z" fill="#98afd4" stroke="#98afd4" stroke-width="1.51"/><path d="M1709,966L1795,1116L1717,821Z" fill="#034c77" stroke="#034c77" stroke-width="1.51"/><path d="M1762,642L1795,1116L1803,257Z" fill="#165f8a" stroke="#165f8a" stroke-width="1.51"/><path d="M1603,1075L1795,1116L1674,972Z" fill="#03466e" stroke="#03466e" stroke-width="1.51"/><path d="M1498,1099L1795,1116L1603,1075Z" fill="#02466e" stroke="#02466e" stroke-width="1.51"/><path d="M1008,1110L1795,1116L1498,1099Z" fill="#03507c" stroke="#03507c" stroke-width="1.51"/><path d="M254,1114L1795,1116L1008,1110Z" fill="#22658d" stroke="#22658d" stroke-width="1.51"/></svg>