<svg xmlns="http://www.w3.org/2000/svg" viewBox="0 0 905.48 1038.58"><defs><style>.cls-1{fill:#fff;}</style></defs><title>Asset 7</title><g id="Layer_2" data-name="Layer 2"><g id="Layer_1-2" data-name="Layer 1"><path class="cls-1" d="M327.23,890.49c8.89,0,15.81-.76,20.73-2.22a20.11,20.11,0,0,0,11.36-8.16q4-5.93,5.43-16.81t1.5-30.62V816.38q0-19.74-1.5-30.6T359.32,769A19.94,19.94,0,0,0,348,760.83c-4.92-1.5-11.84-2.22-20.73-2.22V744.28L422,732V832.69c0,13.18.51,23.38,1.48,30.62s2.89,12.85,5.7,16.81a21.3,21.3,0,0,0,11.36,8.16c4.76,1.46,11.59,2.22,20.48,2.22v14.29H327.23Z"/><path class="cls-1" d="M905.48,906.79H791.14V892.44q10.37,0,14.85-11.64t4.46-46.3V813.75q0-25.77-8.16-39.12c-5.46-8.9-14.79-13.39-28-13.39-11.23,0-21.61,4.41-31.18,13.13s-14.38,20.71-14.38,35.89V834.5c0,13.24.5,23.44,1.47,30.72s2.92,12.87,5.73,16.84a21.08,21.08,0,0,0,11.38,8.16q7.17,2.23,20.54,2.22v14.35H633.7V892.44q13.38,0,20.81-2.22a20.09,20.09,0,0,0,11.38-8.16c2.66-4,4.46-9.58,5.46-16.84s1.5-17.48,1.5-30.72V818.18c0-13.18-.52-23.4-1.5-30.71s-2.8-12.84-5.46-16.81a20.14,20.14,0,0,0-11.38-8.16q-7.41-2.23-20.81-2.22V745.9l86.65-12.37a68.73,68.73,0,0,1,4.19,12.37,82.18,82.18,0,0,1,2.74,15.85,75,75,0,0,1,26.47-20.54,81.16,81.16,0,0,1,35.4-7.67q33.15,0,54.94,21t21.79,52.72v27.2q0,19.34,1.72,30.47c1.17,7.41,3,13.12,5.7,17.09a20,20,0,0,0,11.36,8.16c5,1.48,11.88,2.22,20.81,2.22Z"/><path class="cls-1" d="M566,0H256.2C218.37,0,179.52,6.88,144.7,22.72c-35.22,16-58.36,41.43-60.32,67-3.35,43.23,27.33,61.9,53.18,61.47,24.56-.4,45.95-19.9,50.11-38.72,2.44-11,2.12-33.55,5.6-41.9,12-29,41.71-40.63,73.21-40.63,47.54,0,66.77,15.89,74.42,40.63,3.54,15.93,4.48,37.42,4.48,66.48V426.15c0,94.44-10.06,109.43-86,109.81-61.51-.38-71.57-15.38-71.57-109.81V234.66L7.61,258.1v27.27c64.75,0,74.14,14,74.14,109.8v31C81.75,521.86,72.36,536,7.61,536V563.2H566c214,0,312.55-123.91,312.55-281.58S780,0,566,0Zm-3.76,520.95h-9.38c-78.87,0-90.13-14.07-90.13-106V42.24h99.51c147.35,0,183,125.77,183,239.38S709.55,520.95,562.21,520.95Z"/><path class="cls-1" d="M421.12,653.81a8.53,8.53,0,0,0-.41-1.18,1.25,1.25,0,0,0-.11-.25,27.12,27.12,0,0,0-4.37-7.42c-14.24-20.2-41.37-24.79-77.7-24.79-24.1,0-44.75,8.35-61.5,25.59-16.73,16.72-25.09,39.36-25.09,68.39a131.07,131.07,0,0,0,1.49,19.68c-2.46-.49-5.91-.49-10.83-.49-26.07,0-58.07,13.29-58.07,49.22,0,19.17,12.78,38.86,36.91,50.18L249,845c22.16,10.33,31.5,17.72,31.5,29s-9.86,19.2-25.61,19.2c-31.47,0-60-28.53-60-51.17H180.6v0c-15.8,20.81-28.91,32.23-39.19,35.89a96.8,96.8,0,0,1-32.49,5.5q-20.5,0-35-17T59.46,818l.51-4.51V809H168.88a58.72,58.72,0,0,0,2-15q0-26-20.49-46.73T96.45,726.58a101.62,101.62,0,0,0-37,6.77,96.57,96.57,0,0,0-31,19.21,90.15,90.15,0,0,0-21,29.25A87.65,87.65,0,0,0,0,818a88.44,88.44,0,0,0,28,65.2A94.69,94.69,0,0,0,60.23,903a115.46,115.46,0,0,0,40.7,7q20.47,0,41.49-9.5c13.71-6.19,26.78-18.89,38.19-33.11v46.57h14.25c0-10.35,2-15.75,6.42-15.75,2.46,0,6.88,1.45,13.29,4.93,14.27,6.39,25.58,10.82,40.82,10.82,18.21,0,33.47-4.43,46.76-13.79s20.18-23.62,20.18-41.82c0-19.66-13.79-38.86-37.9-50.18L260.3,796.8c-27.06-11.79-33.95-16.73-33.95-27.06,0-9.82,10.35-16.73,24.14-16.73a24,24,0,0,1,7.35,1,31.82,31.82,0,0,1,2,5.4,4,4,0,0,1,.46,2c5.92,16.23,14.78,27.06,28.06,27.06,11.79,0,19.18-9.82,19.18-18.2,0-14.27-9.34-21.65-25.58-30-5.42-13.27-8.38-26.59-8.38-39.37q0-30.23,19.2-48.73c13.29-12.77,28.05-19.19,44.79-19.19a83.27,83.27,0,0,1,26.8,4.11c1.49.62,9.24,5,6,14.08-.05.16-.11.32-.16.49A28.7,28.7,0,0,0,376,681.51a24.65,24.65,0,0,0,18.86,8.36,26,26,0,0,0,19.31-8.36,27.06,27.06,0,0,0,8.15-19.5A27.72,27.72,0,0,0,421.12,653.81ZM98.94,750.59q30.94,0,31,36.45H63.45Q71.95,750.59,98.94,750.59Z"/><path class="cls-1" d="M630.62,661.65c-32.37,0-57.26,21.94-57.26,61.27a111.49,111.49,0,0,0,3,24.41c-14-10-28.4-16-46.8-16-40.32,0-74.19,30.88-74.19,67.72,0,25.37,15.61,48.81,37.49,58.76,16.31,7.41,30.11,8.39,41.7,9,26.89,1.28,43.79,7,43.79,16.42,0,8-9,9.47-42.32,12.95l-10.45,1c-61.26,7-84.66,40.35-84.66,70.22,0,21.41,9,38.83,27.42,51.77s40.81,19.43,67.69,19.43c27.39,0,49.79-5,66.2-14.92s24.43-21.44,24.43-34.87c0-16.43-11-29.89-32.89-40.84l-9.45,5.49c10.46,11.45,15.95,21.4,15.95,30.38,0,10.44-6.5,18.91-18.91,24.38a92,92,0,0,1-40.35,9c-35.35,0-59.23-13.45-59.23-33.84,0-9,5-15.95,14.9-21.41,10-5,29.87-9,59.27-12.46,41.33-4.48,62.24-20.92,62.24-49.77,0-16.29-19.1-35.71-36.48-40.9A63.25,63.25,0,0,0,569,856.37c4.57-3,11.63-7.67,15.26-11.49,13-13.42,19.45-28.38,19.45-45.78,0-15.46-2.51-24.89-12-36.36a168.68,168.68,0,0,1-3.5-33.35c0-27.88,9-44.3,28.4-44.3,9.46,0,11.93,4,14.44,12.43,3.48,8,6,12.44,14,14.45a5.55,5.55,0,0,1,2.48.49h2c10.44,0,17.42-9,17.42-20.44C667,676.13,654.54,661.65,630.62,661.65ZM543.18,839.58c-17.93,0-27.89-19.43-27.89-47.31s10-47.31,27.89-47.31c18.43,0,27.89,18.94,27.89,47.31C571.07,820.15,561.62,839.58,543.18,839.58Z"/></g></g></svg>